<svg xmlns="http://www.w3.org/2000/svg">
  <symbol viewBox=" 0 0 23 13" id="vk">
    <path d="M.07 2c0-.63.42-.96 1.27-1.01L4.6 1c.22 0 .36.09.44.27.33.91.7 1.7 1.12 2.37.42.66.96 1.43 1.63 2.3a.3.3 0 0 0 .29.16.28.28 0 0 0 .24-.13l.07-.2.02-3.16c0-.22-.06-.37-.19-.44A1.92 1.92 0 0 0 7.53 2c-.26-.04-.4-.17-.4-.4 0-.05.02-.09.03-.11C7.46.7 8.34.3 9.8.3L11 .29c.56 0 1.02.12 1.38.35.37.23.55.6.55 1.1v4.15a.56.56 0 0 0 .28.09c.22 0 .41-.11.57-.33 1.6-1.88 2.48-3.13 2.6-3.77a.29.29 0 0 1 .05-.09c.1-.18.27-.34.5-.47.24-.14.44-.23.62-.28a.5.5 0 0 1 .2-.04h3.39l.22.02c.29 0 .51.12.67.35a.63.63 0 0 1 .12.24 1.5 1.5 0 0 1 .06.4v.13c-.1.5-.36 1.03-.78 1.6-.41.57-.94 1.18-1.58 1.84-.65.66-1.05 1.09-1.2 1.3-.14.14-.2.28-.2.4 0 .1.05.2.17.33l3.2 3.36a.94.94 0 0 1 .26.64c0 .28-.13.52-.4.7a1.83 1.83 0 0 1-.94.3l-.37.03h-3.33a.8.8 0 0 0-.08 0 .8.8 0 0 1-.1.02c-.31 0-.61-.12-.89-.35l-2.06-2.16a1.1 1.1 0 0 0-.3-.24 26.3 26.3 0 0 0-.44 1.63l-.07.31c-.14.43-.45.68-.92.77l-.3.02H9.74a5.92 5.92 0 0 1-3.62-1.4 14.53 14.53 0 0 1-3.25-3.59A32.86 32.86 0 0 1 .18 2.52 1.25 1.25 0 0 1 .07 2Zm13.15 4.73a1.66 1.66 0 0 1-.83-.21c-.25-.14-.37-.33-.37-.58v-4.2c0-.25-.07-.42-.22-.52-.14-.1-.4-.16-.77-.16L9.8 1.1c-.63 0-1.1.09-1.42.27.64.26.96.67.96 1.24v3.22c-.03.3-.18.56-.44.76a1.4 1.4 0 0 1-.88.3c-.43 0-.77-.17-1-.53a18.52 18.52 0 0 1-2.54-4.1l-.2-.47-2.9-.02c-.2 0-.3.01-.33.03-.02.02-.03.07-.03.16 0 .1.02.22.05.34l.46 1.03A23.41 23.41 0 0 0 5.5 9.58c1.44 1.53 2.85 2.29 4.23 2.29h2.2c.08 0 .15-.02.19-.06a.53.53 0 0 0 .1-.25l.05-.19.42-1.6c.11-.22.22-.37.3-.44a.86.86 0 0 1 .57-.2c.35 0 .71.17 1.08.53l1.86 1.97c.11.16.24.24.37.24h3.6c.45 0 .67-.1.67-.28a.31.31 0 0 0-.07-.18l-3.17-3.3a1.17 1.17 0 0 1-.38-.83c0-.3.12-.58.35-.84A18 18 0 0 1 19 5.22a28.2 28.2 0 0 0 1.43-1.59c.41-.5.68-.94.81-1.35l.07-.23a.24.24 0 0 1-.02-.12c0-.06-.01-.1-.03-.14h-3.43a1.2 1.2 0 0 0-.53.33l-.13.35c-.36.84-1.32 2.14-2.86 3.9a1.67 1.67 0 0 1-1.08.36Z"/>
  </symbol>
  <symbol viewBox=" 0 0 16 16" id="instagram">
    <path d="M7.98.06c1.34 0 2.43.02 3.27.05.72.03 1.36.16 1.92.37a3.99 3.99 0 0 1 2.31 2.32c.22.56.35 1.2.38 1.92a89.87 89.87 0 0 1 0 6.53 5.96 5.96 0 0 1-.38 1.92 3.99 3.99 0 0 1-.9 1.4 3.99 3.99 0 0 1-1.4.91c-.57.22-1.21.35-1.93.38-.84.03-1.93.05-3.27.05a91.88 91.88 0 0 1-3.26-.05 5.96 5.96 0 0 1-1.92-.38 3.99 3.99 0 0 1-1.4-.9 3.99 3.99 0 0 1-.92-1.4 6.02 6.02 0 0 1-.37-1.93 91.73 91.73 0 0 1-.05-3.27c0-1.33.02-2.42.05-3.26C.14 4 .27 3.36.49 2.8c.2-.55.5-1.01.9-1.4A3.99 3.99 0 0 1 2.8.47C3.37.27 4 .14 4.73.11A91.73 91.73 0 0 1 7.98.06Zm0 1.03c-1.38 0-2.51.02-3.39.05-.56.02-1.08.12-1.56.3a2.85 2.85 0 0 0-1.6 1.6 5 5 0 0 0-.29 1.55A98.83 98.83 0 0 0 1.1 8c0 1.38.02 2.51.05 3.38.02.57.12 1.09.3 1.57.31.75.84 1.28 1.6 1.6.47.17 1 .27 1.55.29a99.38 99.38 0 0 0 6.79 0 5.01 5.01 0 0 0 1.56-.3 2.85 2.85 0 0 0 1.6-1.6c.17-.47.27-1 .29-1.55a99.38 99.38 0 0 0 0-6.79 5.01 5.01 0 0 0-.3-1.56 2.85 2.85 0 0 0-1.6-1.6 5 5 0 0 0-1.55-.29 98.8 98.8 0 0 0-3.4-.05Zm0 10.07c.88 0 1.63-.31 2.25-.93.62-.62.93-1.37.93-2.25s-.31-1.62-.93-2.24a3.06 3.06 0 0 0-2.25-.93c-.87 0-1.62.31-2.24.93-.62.62-.93 1.37-.93 2.24s.31 1.63.93 2.25c.62.62 1.37.93 2.24.93Zm0-7.24c1.13 0 2.09.4 2.88 1.19.8.8 1.19 1.75 1.19 2.87s-.4 2.09-1.2 2.88c-.78.8-1.74 1.19-2.87 1.19s-2.08-.4-2.87-1.2c-.8-.78-1.19-1.74-1.19-2.87s.4-2.08 1.19-2.87c.8-.8 1.75-1.19 2.87-1.19Zm5.2-.15a.9.9 0 0 1-.29.66.95.95 0 0 1-.69.27.9.9 0 0 1-.66-.27.9.9 0 0 1-.27-.66c0-.27.09-.5.27-.7a.9.9 0 0 1 .66-.27.93.93 0 0 1 .68.29.93.93 0 0 1 .3.68Z"/>
  </symbol>
  <symbol viewBox=" 0 0 13 20" id="facebook">
    <path d="M11.5.83H8.75c-1.22 0-2.38.48-3.24 1.32a4.45 4.45 0 0 0-1.34 3.18v2.7H1.42v3.59h2.75v7.19h3.66v-7.2h2.75l.92-3.59H7.83v-2.7c0-.23.1-.46.27-.63.17-.17.4-.26.65-.26h2.75V.83Z" stroke="#666"/>
  </symbol>
  <symbol viewBox=" 0 0 27 34" id="htmlacademy">
    <path d="M13.64.02 13.5 0 0 1.4v24.61L13.5 34 27 26.01V1.41L13.64 0Zm11.6 25L13.5 31.96 1.77 25.02v-10.1l11.68 6.93.02 1.25-8.02-4.75v1.23l8.04 4.8.02 1.3-8.05-4.76v1.22l8.04 4.81 8.12-4.83V16.9l3.62-2.15v10.26Zm0-11.57L22 15.33l-1.48.88-7.06-4.19-.01 1.23 6.04 3.57-.06.03-.13.07-.86.5-4.98-2.95-.01 1.22 3.93 2.33-.93.61-.02.01-2.97-1.74-.01 1.23 1.94 1.13-1.98 1.19L1.8 13.58l11.63-6.96 11.8 6.83Zm0-1.22L13.43 5.3 1.77 12.22V2.99L13.5 1.76 25.23 3v9.24Z" fill="#666"/>
  </symbol>
</svg>
